<mxfile host="www.draw.io" modified="2020-02-19T12:32:15.504Z" agent="Mozilla/5.0 (Macintosh; Intel Mac OS X 10_14_6) AppleWebKit/537.36 (KHTML, like Gecko) Chrome/79.0.3945.130 Safari/537.36" etag="ltA5Eq7De8gL0jvMZtD_" version="12.7.2" type="github">
  <diagram id="u7UtX-OBa40IpuXoaNEF" name="หน้า-1">
    <mxGraphModel dx="1208" dy="552" grid="1" gridSize="10" guides="1" tooltips="1" connect="1" arrows="1" fold="1" page="1" pageScale="1" pageWidth="850" pageHeight="1100" math="0" shadow="0" extFonts="Kanit^https://fonts.googleapis.com/css?family=Kanit">
      <root>
        <mxCell id="0" />
        <mxCell id="1" parent="0" />
        <mxCell id="h8JRblbBfnmHyVmlJrzL-3" style="edgeStyle=orthogonalEdgeStyle;rounded=0;orthogonalLoop=1;jettySize=auto;html=1;exitX=0.5;exitY=1;exitDx=0;exitDy=0;entryX=0.5;entryY=0;entryDx=0;entryDy=0;" parent="1" source="h8JRblbBfnmHyVmlJrzL-1" target="h8JRblbBfnmHyVmlJrzL-2" edge="1">
          <mxGeometry relative="1" as="geometry" />
        </mxCell>
        <mxCell id="h8JRblbBfnmHyVmlJrzL-1" value="&lt;font face=&quot;Kanit&quot; style=&quot;font-size: 14px&quot;&gt;เริ่มต้น&lt;/font&gt;" style="rounded=1;whiteSpace=wrap;html=1;arcSize=50;fillColor=#dae8fc;strokeColor=#6c8ebf;" parent="1" vertex="1">
          <mxGeometry x="340" y="40" width="120" height="50" as="geometry" />
        </mxCell>
        <mxCell id="h8JRblbBfnmHyVmlJrzL-5" style="edgeStyle=orthogonalEdgeStyle;rounded=0;orthogonalLoop=1;jettySize=auto;html=1;exitX=0.5;exitY=1;exitDx=0;exitDy=0;" parent="1" source="h8JRblbBfnmHyVmlJrzL-2" target="h8JRblbBfnmHyVmlJrzL-4" edge="1">
          <mxGeometry relative="1" as="geometry" />
        </mxCell>
        <mxCell id="h8JRblbBfnmHyVmlJrzL-2" value="&lt;font face=&quot;Kanit&quot; style=&quot;font-size: 14px&quot;&gt;ประกาศตัวแปร n&lt;/font&gt;" style="rounded=0;whiteSpace=wrap;html=1;" parent="1" vertex="1">
          <mxGeometry x="305" y="110" width="190" height="50" as="geometry" />
        </mxCell>
        <mxCell id="h8JRblbBfnmHyVmlJrzL-7" style="edgeStyle=orthogonalEdgeStyle;rounded=0;orthogonalLoop=1;jettySize=auto;html=1;exitX=0.5;exitY=1;exitDx=0;exitDy=0;entryX=0.5;entryY=0;entryDx=0;entryDy=0;" parent="1" source="h8JRblbBfnmHyVmlJrzL-4" edge="1">
          <mxGeometry relative="1" as="geometry">
            <mxPoint x="400" y="250" as="targetPoint" />
          </mxGeometry>
        </mxCell>
        <mxCell id="h8JRblbBfnmHyVmlJrzL-4" value="&lt;font style=&quot;font-size: 14px&quot;&gt;รับค่า &lt;font color=&quot;#003366&quot;&gt;n&lt;/font&gt;&lt;/font&gt;" style="shape=parallelogram;perimeter=parallelogramPerimeter;whiteSpace=wrap;html=1;fontFamily=Kanit;FType=g;" parent="1" vertex="1">
          <mxGeometry x="305" y="180" width="190" height="50" as="geometry" />
        </mxCell>
        <mxCell id="bCGeH5XBmrej9dvq10Ig-4" style="edgeStyle=orthogonalEdgeStyle;rounded=0;orthogonalLoop=1;jettySize=auto;html=1;exitX=0;exitY=0.5;exitDx=0;exitDy=0;entryX=0.5;entryY=0;entryDx=0;entryDy=0;" parent="1" source="bCGeH5XBmrej9dvq10Ig-1" target="bCGeH5XBmrej9dvq10Ig-2" edge="1">
          <mxGeometry relative="1" as="geometry" />
        </mxCell>
        <mxCell id="Ss7X3VPsmDunQyNDjqaT-2" style="edgeStyle=orthogonalEdgeStyle;rounded=0;orthogonalLoop=1;jettySize=auto;html=1;exitX=1;exitY=0.5;exitDx=0;exitDy=0;entryX=0.5;entryY=0;entryDx=0;entryDy=0;" edge="1" parent="1" source="bCGeH5XBmrej9dvq10Ig-1" target="Ss7X3VPsmDunQyNDjqaT-1">
          <mxGeometry relative="1" as="geometry" />
        </mxCell>
        <mxCell id="bCGeH5XBmrej9dvq10Ig-1" value="&lt;font face=&quot;Kanit&quot; style=&quot;font-size: 14px&quot;&gt;n &amp;gt; 0&lt;/font&gt;" style="rhombus;whiteSpace=wrap;html=1;" parent="1" vertex="1">
          <mxGeometry x="335" y="250" width="130" height="80" as="geometry" />
        </mxCell>
        <mxCell id="bCGeH5XBmrej9dvq10Ig-8" style="edgeStyle=orthogonalEdgeStyle;rounded=0;orthogonalLoop=1;jettySize=auto;html=1;exitX=0.5;exitY=1;exitDx=0;exitDy=0;entryX=0;entryY=0.5;entryDx=0;entryDy=0;" parent="1" source="bCGeH5XBmrej9dvq10Ig-2" target="bCGeH5XBmrej9dvq10Ig-6" edge="1">
          <mxGeometry relative="1" as="geometry" />
        </mxCell>
        <mxCell id="bCGeH5XBmrej9dvq10Ig-2" value="&lt;span style=&quot;font-size: 14px&quot;&gt;&quot;เต็มบวก&quot;&lt;/span&gt;" style="shape=parallelogram;perimeter=parallelogramPerimeter;whiteSpace=wrap;html=1;fontFamily=Kanit;FType=g;" parent="1" vertex="1">
          <mxGeometry x="145" y="330" width="135" height="50" as="geometry" />
        </mxCell>
        <mxCell id="bCGeH5XBmrej9dvq10Ig-10" style="edgeStyle=orthogonalEdgeStyle;rounded=0;orthogonalLoop=1;jettySize=auto;html=1;exitX=0.5;exitY=1;exitDx=0;exitDy=0;entryX=0.5;entryY=0;entryDx=0;entryDy=0;" parent="1" source="bCGeH5XBmrej9dvq10Ig-6" target="bCGeH5XBmrej9dvq10Ig-9" edge="1">
          <mxGeometry relative="1" as="geometry" />
        </mxCell>
        <mxCell id="bCGeH5XBmrej9dvq10Ig-6" value="" style="ellipse;whiteSpace=wrap;html=1;aspect=fixed;" parent="1" vertex="1">
          <mxGeometry x="385" y="500" width="30" height="30" as="geometry" />
        </mxCell>
        <mxCell id="bCGeH5XBmrej9dvq10Ig-9" value="&lt;font face=&quot;Kanit&quot;&gt;&lt;span style=&quot;font-size: 14px&quot;&gt;จบ&lt;/span&gt;&lt;/font&gt;" style="rounded=1;whiteSpace=wrap;html=1;arcSize=50;" parent="1" vertex="1">
          <mxGeometry x="340" y="560" width="120" height="50" as="geometry" />
        </mxCell>
        <mxCell id="bCGeH5XBmrej9dvq10Ig-11" value="T" style="text;html=1;align=center;verticalAlign=middle;resizable=0;points=[];autosize=1;" parent="1" vertex="1">
          <mxGeometry x="305" y="264" width="20" height="20" as="geometry" />
        </mxCell>
        <mxCell id="bCGeH5XBmrej9dvq10Ig-12" value="F" style="text;html=1;align=center;verticalAlign=middle;resizable=0;points=[];autosize=1;" parent="1" vertex="1">
          <mxGeometry x="475" y="264" width="20" height="20" as="geometry" />
        </mxCell>
        <mxCell id="Ss7X3VPsmDunQyNDjqaT-7" style="edgeStyle=orthogonalEdgeStyle;rounded=0;orthogonalLoop=1;jettySize=auto;html=1;exitX=0;exitY=0.5;exitDx=0;exitDy=0;entryX=0.5;entryY=0;entryDx=0;entryDy=0;" edge="1" parent="1" source="Ss7X3VPsmDunQyNDjqaT-1" target="Ss7X3VPsmDunQyNDjqaT-5">
          <mxGeometry relative="1" as="geometry" />
        </mxCell>
        <mxCell id="Ss7X3VPsmDunQyNDjqaT-8" style="edgeStyle=orthogonalEdgeStyle;rounded=0;orthogonalLoop=1;jettySize=auto;html=1;exitX=1;exitY=0.5;exitDx=0;exitDy=0;" edge="1" parent="1" source="Ss7X3VPsmDunQyNDjqaT-1" target="Ss7X3VPsmDunQyNDjqaT-6">
          <mxGeometry relative="1" as="geometry" />
        </mxCell>
        <mxCell id="Ss7X3VPsmDunQyNDjqaT-1" value="&lt;font face=&quot;Kanit&quot;&gt;&lt;span style=&quot;font-size: 14px&quot;&gt;n &amp;lt; 0&lt;/span&gt;&lt;/font&gt;" style="rhombus;whiteSpace=wrap;html=1;" vertex="1" parent="1">
          <mxGeometry x="540" y="315" width="130" height="80" as="geometry" />
        </mxCell>
        <mxCell id="Ss7X3VPsmDunQyNDjqaT-10" style="edgeStyle=orthogonalEdgeStyle;rounded=0;orthogonalLoop=1;jettySize=auto;html=1;exitX=0.5;exitY=1;exitDx=0;exitDy=0;entryX=0;entryY=0.5;entryDx=0;entryDy=0;" edge="1" parent="1" source="Ss7X3VPsmDunQyNDjqaT-5" target="Ss7X3VPsmDunQyNDjqaT-9">
          <mxGeometry relative="1" as="geometry" />
        </mxCell>
        <mxCell id="Ss7X3VPsmDunQyNDjqaT-5" value="&lt;span style=&quot;font-size: 14px&quot;&gt;&quot;เต็มลบ&quot;&lt;/span&gt;" style="shape=parallelogram;perimeter=parallelogramPerimeter;whiteSpace=wrap;html=1;fontFamily=Kanit;FType=g;" vertex="1" parent="1">
          <mxGeometry x="405" y="395" width="135" height="50" as="geometry" />
        </mxCell>
        <mxCell id="Ss7X3VPsmDunQyNDjqaT-11" style="edgeStyle=orthogonalEdgeStyle;rounded=0;orthogonalLoop=1;jettySize=auto;html=1;exitX=0.5;exitY=1;exitDx=0;exitDy=0;entryX=1;entryY=0.5;entryDx=0;entryDy=0;" edge="1" parent="1" source="Ss7X3VPsmDunQyNDjqaT-6" target="Ss7X3VPsmDunQyNDjqaT-9">
          <mxGeometry relative="1" as="geometry" />
        </mxCell>
        <mxCell id="Ss7X3VPsmDunQyNDjqaT-6" value="&lt;span style=&quot;font-size: 14px&quot;&gt;&quot;เต็มศูนย์&quot;&lt;/span&gt;" style="shape=parallelogram;perimeter=parallelogramPerimeter;whiteSpace=wrap;html=1;fontFamily=Kanit;FType=g;" vertex="1" parent="1">
          <mxGeometry x="660" y="395" width="135" height="50" as="geometry" />
        </mxCell>
        <mxCell id="Ss7X3VPsmDunQyNDjqaT-14" style="edgeStyle=orthogonalEdgeStyle;rounded=0;orthogonalLoop=1;jettySize=auto;html=1;exitX=0.5;exitY=1;exitDx=0;exitDy=0;entryX=1;entryY=0.5;entryDx=0;entryDy=0;" edge="1" parent="1" source="Ss7X3VPsmDunQyNDjqaT-9" target="bCGeH5XBmrej9dvq10Ig-6">
          <mxGeometry relative="1" as="geometry" />
        </mxCell>
        <mxCell id="Ss7X3VPsmDunQyNDjqaT-9" value="" style="ellipse;whiteSpace=wrap;html=1;aspect=fixed;" vertex="1" parent="1">
          <mxGeometry x="590" y="460" width="30" height="30" as="geometry" />
        </mxCell>
        <mxCell id="Ss7X3VPsmDunQyNDjqaT-12" value="T" style="text;html=1;align=center;verticalAlign=middle;resizable=0;points=[];autosize=1;" vertex="1" parent="1">
          <mxGeometry x="510" y="330" width="20" height="20" as="geometry" />
        </mxCell>
        <mxCell id="Ss7X3VPsmDunQyNDjqaT-13" value="F" style="text;html=1;align=center;verticalAlign=middle;resizable=0;points=[];autosize=1;" vertex="1" parent="1">
          <mxGeometry x="680" y="330" width="20" height="20" as="geometry" />
        </mxCell>
      </root>
    </mxGraphModel>
  </diagram>
</mxfile>
